<mxfile host="app.diagrams.net" modified="2024-05-05T06:23:36.754Z" agent="Mozilla/5.0 (Windows NT 10.0; Win64; x64) AppleWebKit/537.36 (KHTML, like Gecko) Chrome/124.0.0.0 Safari/537.36 Edg/124.0.0.0" version="24.3.1" etag="DnBKH3x2lrZ_YWEhnfdx" type="github">
  <diagram name="第 1 页" id="DpfrMJNfhr6L6Hv7k2_x">
    <mxGraphModel>
      <root>
        <mxCell id="0" />
        <mxCell id="1" parent="0" />
      </root>
    </mxGraphModel>
  </diagram>
</mxfile>
